<svg width="14" height="16" viewBox="0 0 14 16" fill="none" xmlns="http://www.w3.org/2000/svg">
<path d="M2.74267 0.241409C2.46389 0.0821678 2.14819 -0.00107431 1.82714 1.04681e-05C1.50609 0.00109524 1.19096 0.0864689 0.913263 0.24759C0.63557 0.408711 0.405057 0.63993 0.244785 0.918114C0.0845135 1.1963 0.000103536 1.51169 0 1.83274V13.3406C0.000103536 13.6616 0.0845135 13.977 0.244785 14.2552C0.405057 14.5334 0.63557 14.7646 0.913263 14.9257C1.19096 15.0868 1.50609 15.1722 1.82714 15.1733C2.14819 15.1744 2.46389 15.0911 2.74267 14.9319L12.8113 9.17708C13.0917 9.01666 13.3248 8.785 13.4869 8.50555C13.6489 8.22611 13.7343 7.90879 13.7343 7.58574C13.7343 7.26269 13.6489 6.94538 13.4869 6.66593C13.3248 6.38648 13.0917 6.15482 12.8113 5.99441L2.74267 0.241409Z" fill="#1A3E3E"/>
</svg>
